<?xml version="1.0" encoding="UTF-8" standalone="no"?><svg xmlns="http://www.w3.org/2000/svg" xmlns:xlink="http://www.w3.org/1999/xlink" contentScriptType="application/ecmascript" contentStyleType="text/css" height="637px" preserveAspectRatio="none" style="width:1243px;height:637px;" version="1.1" viewBox="0 0 1243 637" width="1243px" zoomAndPan="magnify"><defs><filter height="300%" id="fm6c1det23lno" width="300%" x="-1" y="-1"><feGaussianBlur result="blurOut" stdDeviation="2.0"/><feColorMatrix in="blurOut" result="blurOut2" type="matrix" values="0 0 0 0 0 0 0 0 0 0 0 0 0 0 0 0 0 0 .4 0"/><feOffset dx="4.0" dy="4.0" in="blurOut2" result="blurOut3"/><feBlend in="SourceGraphic" in2="blurOut3" mode="normal"/></filter></defs><g><!--MD5=[9ea8900a10a013ddb68622d258840509]
cluster echidna--><polygon fill="#FFFFFF" filter="url(#fm6c1det23lno)" points="63,6,132,6,139,28.2969,458,28.2969,458,131,63,131,63,6" style="stroke: #000000; stroke-width: 1.5;"/><line style="stroke: #000000; stroke-width: 1.5;" x1="63" x2="139" y1="28.2969" y2="28.2969"/><text fill="#000000" font-family="sans-serif" font-size="14" font-weight="bold" lengthAdjust="spacingAndGlyphs" textLength="63" x="67" y="20.9951">echidna</text><!--MD5=[01092a67510564d5c3bfa7475ff2570e]
cluster requests--><polygon fill="#FFFFFF" filter="url(#fm6c1det23lno)" points="482,12.5,559,12.5,566,34.7969,798,34.7969,798,124.5,482,124.5,482,12.5" style="stroke: #000000; stroke-width: 1.5;"/><line style="stroke: #000000; stroke-width: 1.5;" x1="482" x2="566" y1="34.7969" y2="34.7969"/><text fill="#000000" font-family="sans-serif" font-size="14" font-weight="bold" lengthAdjust="spacingAndGlyphs" textLength="71" x="486" y="27.4951">requests</text><!--MD5=[3b5de4bffdf2b4f3ce2c8c34ba80e29d]
cluster vulnerabilities--><polygon fill="#FFFFFF" filter="url(#fm6c1det23lno)" points="822,6,944,6,951,28.2969,1221,28.2969,1221,131,822,131,822,6" style="stroke: #000000; stroke-width: 1.5;"/><line style="stroke: #000000; stroke-width: 1.5;" x1="822" x2="951" y1="28.2969" y2="28.2969"/><text fill="#000000" font-family="sans-serif" font-size="14" font-weight="bold" lengthAdjust="spacingAndGlyphs" textLength="116" x="826" y="20.9951">vulnerabilities</text><!--MD5=[d10c0fc188658aa905e9b53266af4542]
cluster wp--><polygon fill="#FFFFFF" filter="url(#fm6c1det23lno)" points="16,155,45,155,52,177.2969,821,177.2969,821,625,16,625,16,155" style="stroke: #000000; stroke-width: 1.5;"/><line style="stroke: #000000; stroke-width: 1.5;" x1="16" x2="52" y1="177.2969" y2="177.2969"/><text fill="#000000" font-family="sans-serif" font-size="14" font-weight="bold" lengthAdjust="spacingAndGlyphs" textLength="23" x="20" y="169.9951">wp</text><!--MD5=[2880354648672bf54ea6b931e8db0215]
class echidna.scanner--><rect codeLine="2" fill="#FEFECE" filter="url(#fm6c1det23lno)" height="73.6094" id="echidna.scanner" style="stroke: #A80036; stroke-width: 1.5;" width="101" x="340.5" y="41"/><ellipse cx="364.95" cy="57" fill="#7FFFD4" rx="11" ry="11" style="stroke: #A80036; stroke-width: 1.0;"/><path d="M368.7313,52.9688 C368.7313,52.5313 368.7156,52.3906 368.6219,52.2344 C368.4813,52 368.2,51.8438 367.9031,51.8438 C367.5594,51.8438 367.4188,51.9844 367.2469,52.4063 C366.6531,52.0313 365.9031,51.8438 365.0281,51.8438 C362.9188,51.8438 361.3406,53.1406 361.3406,54.8594 C361.3406,55.8281 361.8719,56.7344 362.7313,57.2188 C363.2781,57.5313 363.825,57.7031 364.9344,57.8906 C366.0906,58.0938 366.3563,58.1563 366.7156,58.3438 C367.0906,58.5469 367.325,58.8906 367.325,59.25 C367.325,59.9844 366.3406,60.5313 365.0906,60.5313 C363.9656,60.5313 362.8875,60.0469 362.7156,59.4375 C362.5906,58.9688 362.5906,58.9688 362.4656,58.8594 C362.3094,58.7031 362.0906,58.6094 361.8563,58.6094 C361.575,58.6094 361.325,58.7344 361.1531,58.9531 C361.0438,59.125 360.9969,59.3125 360.9969,59.7344 L360.9969,60.8594 C360.9969,61.625 361.2781,61.9844 361.8719,61.9844 C362.1375,61.9844 362.2625,61.9219 362.5438,61.5781 C363.3875,62.0156 364.2781,62.2344 365.2,62.2344 C367.5281,62.2344 369.0906,61.0469 369.0906,59.2813 C369.0906,58.3906 368.7781,57.7031 368.0906,57.1563 C367.5594,56.7344 366.9188,56.4844 365.4344,56.2188 C364.1688,55.9844 364.075,55.9531 363.7469,55.7813 C363.3719,55.5938 363.1063,55.2031 363.1063,54.8438 C363.1063,54.1094 363.9656,53.5469 365.0281,53.5469 C366.0906,53.5469 366.9031,54.0156 367.0594,54.6875 C367.1688,55.2344 367.1688,55.2344 367.2938,55.375 C367.4344,55.5 367.6688,55.6094 367.9031,55.6094 C368.1688,55.6094 368.4188,55.4688 368.5906,55.25 C368.7,55.0781 368.7313,54.9375 368.7313,54.4688 L368.7313,52.9688 Z "/><text fill="#000000" font-family="sans-serif" font-size="12" lengthAdjust="spacingAndGlyphs" textLength="48" x="381.05" y="61.1543">scanner</text><line style="stroke: #A80036; stroke-width: 1.5;" x1="341.5" x2="440.5" y1="73" y2="73"/><ellipse cx="351.5" cy="84" fill="none" rx="3" ry="3" style="stroke: #038048; stroke-width: 1.0;"/><text fill="#000000" font-family="sans-serif" font-size="11" lengthAdjust="spacingAndGlyphs" textLength="75" x="360.5" y="87.2104">Target target</text><ellipse cx="351.5" cy="96.8047" fill="none" rx="3" ry="3" style="stroke: #038048; stroke-width: 1.0;"/><text fill="#000000" font-family="sans-serif" font-size="11" lengthAdjust="spacingAndGlyphs" textLength="70" x="360.5" y="100.0151">Started bool</text><line style="stroke: #A80036; stroke-width: 1.5;" x1="341.5" x2="440.5" y1="106.6094" y2="106.6094"/><!--MD5=[5dc2007600998c227fef264acf0bf6a5]
class echidna.target--><rect codeLine="7" fill="#FEFECE" filter="url(#fm6c1det23lno)" height="60.8047" id="echidna.target" style="stroke: #A80036; stroke-width: 1.5;" width="226" x="79" y="47.5"/><ellipse cx="169.25" cy="63.5" fill="#B4A7E5" rx="11" ry="11" style="stroke: #A80036; stroke-width: 1.0;"/><path d="M170.2031,60.2813 L171.9219,60.2813 C172.3125,60.2813 172.5,60.25 172.625,60.1719 C172.8906,60.0156 173.0313,59.7344 173.0313,59.4375 C173.0313,59.1719 172.9219,58.9063 172.6875,58.7344 C172.5156,58.625 172.375,58.5938 171.9219,58.5938 L166.7813,58.5938 C166.3438,58.5938 166.2188,58.6094 166.0625,58.7031 C165.8125,58.8594 165.6563,59.1563 165.6563,59.4375 C165.6563,59.7188 165.7969,59.9688 166.0156,60.1406 C166.1719,60.25 166.3594,60.2813 166.7813,60.2813 L168.5,60.2813 L168.5,66.7969 L166.7813,66.7969 C166.3438,66.7969 166.2188,66.8125 166.0625,66.9219 C165.8125,67.0781 165.6563,67.3594 165.6563,67.6563 C165.6563,67.9063 165.7969,68.1719 166.0156,68.3281 C166.1719,68.4531 166.375,68.5 166.7813,68.5 L171.9219,68.5 C172.6719,68.5 173.0313,68.2188 173.0313,67.6563 C173.0313,67.375 172.9219,67.125 172.6875,66.9531 C172.5156,66.8281 172.375,66.7969 171.9219,66.7969 L170.2031,66.7969 L170.2031,60.2813 Z "/><text fill="#000000" font-family="sans-serif" font-size="12" font-style="italic" lengthAdjust="spacingAndGlyphs" textLength="37" x="189.75" y="67.6543">target</text><line style="stroke: #A80036; stroke-width: 1.5;" x1="80" x2="304" y1="79.5" y2="79.5"/><line style="stroke: #A80036; stroke-width: 1.5;" x1="80" x2="304" y1="87.5" y2="87.5"/><ellipse cx="90" cy="98.5" fill="#84BE84" rx="3" ry="3" style="stroke: #038048; stroke-width: 1.0;"/><text fill="#000000" font-family="sans-serif" font-size="11" lengthAdjust="spacingAndGlyphs" textLength="130" x="99" y="101.7104">Scan( context.Context,</text><text fill="#0000FF" font-family="sans-serif" font-size="11" lengthAdjust="spacingAndGlyphs" textLength="27" x="237" y="101.7104">chan</text><text fill="#000000" font-family="sans-serif" font-size="11" lengthAdjust="spacingAndGlyphs" textLength="31" x="268" y="101.7104">error)</text><!--MD5=[e911bbca63b4208e4daf0d1b479d85f5]
class requests.HTTPClient--><rect codeLine="15" fill="#FEFECE" filter="url(#fm6c1det23lno)" height="60.8047" id="requests.HTTPClient" style="stroke: #A80036; stroke-width: 1.5;" width="284" x="498" y="47.5"/><ellipse cx="603.75" cy="63.5" fill="#B4A7E5" rx="11" ry="11" style="stroke: #A80036; stroke-width: 1.0;"/><path d="M604.7031,60.2813 L606.4219,60.2813 C606.8125,60.2813 607,60.25 607.125,60.1719 C607.3906,60.0156 607.5313,59.7344 607.5313,59.4375 C607.5313,59.1719 607.4219,58.9063 607.1875,58.7344 C607.0156,58.625 606.875,58.5938 606.4219,58.5938 L601.2813,58.5938 C600.8438,58.5938 600.7188,58.6094 600.5625,58.7031 C600.3125,58.8594 600.1563,59.1563 600.1563,59.4375 C600.1563,59.7188 600.2969,59.9688 600.5156,60.1406 C600.6719,60.25 600.8594,60.2813 601.2813,60.2813 L603,60.2813 L603,66.7969 L601.2813,66.7969 C600.8438,66.7969 600.7188,66.8125 600.5625,66.9219 C600.3125,67.0781 600.1563,67.3594 600.1563,67.6563 C600.1563,67.9063 600.2969,68.1719 600.5156,68.3281 C600.6719,68.4531 600.875,68.5 601.2813,68.5 L606.4219,68.5 C607.1719,68.5 607.5313,68.2188 607.5313,67.6563 C607.5313,67.375 607.4219,67.125 607.1875,66.9531 C607.0156,66.8281 606.875,66.7969 606.4219,66.7969 L604.7031,66.7969 L604.7031,60.2813 Z "/><text fill="#000000" font-family="sans-serif" font-size="12" font-style="italic" lengthAdjust="spacingAndGlyphs" textLength="64" x="624.25" y="67.6543">HTTPClient</text><line style="stroke: #A80036; stroke-width: 1.5;" x1="499" x2="781" y1="79.5" y2="79.5"/><line style="stroke: #A80036; stroke-width: 1.5;" x1="499" x2="781" y1="87.5" y2="87.5"/><ellipse cx="509" cy="98.5" fill="#84BE84" rx="3" ry="3" style="stroke: #038048; stroke-width: 1.0;"/><text fill="#000000" font-family="sans-serif" font-size="11" lengthAdjust="spacingAndGlyphs" textLength="258" x="518" y="101.7104">Do(req *http.Request) (*http.Response, error)</text><!--MD5=[4aafdbf369e3542d42bf6d7abafef649]
class vulnerabilities.Results--><rect codeLine="23" fill="#FEFECE" filter="url(#fm6c1det23lno)" height="73.6094" id="vulnerabilities.Results" style="stroke: #A80036; stroke-width: 1.5;" width="215" x="989.5" y="41"/><ellipse cx="1071.25" cy="57" fill="#7FFFD4" rx="11" ry="11" style="stroke: #A80036; stroke-width: 1.0;"/><path d="M1075.0313,52.9688 C1075.0313,52.5313 1075.0156,52.3906 1074.9219,52.2344 C1074.7813,52 1074.5,51.8438 1074.2031,51.8438 C1073.8594,51.8438 1073.7188,51.9844 1073.5469,52.4063 C1072.9531,52.0313 1072.2031,51.8438 1071.3281,51.8438 C1069.2188,51.8438 1067.6406,53.1406 1067.6406,54.8594 C1067.6406,55.8281 1068.1719,56.7344 1069.0313,57.2188 C1069.5781,57.5313 1070.125,57.7031 1071.2344,57.8906 C1072.3906,58.0938 1072.6563,58.1563 1073.0156,58.3438 C1073.3906,58.5469 1073.625,58.8906 1073.625,59.25 C1073.625,59.9844 1072.6406,60.5313 1071.3906,60.5313 C1070.2656,60.5313 1069.1875,60.0469 1069.0156,59.4375 C1068.8906,58.9688 1068.8906,58.9688 1068.7656,58.8594 C1068.6094,58.7031 1068.3906,58.6094 1068.1563,58.6094 C1067.875,58.6094 1067.625,58.7344 1067.4531,58.9531 C1067.3438,59.125 1067.2969,59.3125 1067.2969,59.7344 L1067.2969,60.8594 C1067.2969,61.625 1067.5781,61.9844 1068.1719,61.9844 C1068.4375,61.9844 1068.5625,61.9219 1068.8438,61.5781 C1069.6875,62.0156 1070.5781,62.2344 1071.5,62.2344 C1073.8281,62.2344 1075.3906,61.0469 1075.3906,59.2813 C1075.3906,58.3906 1075.0781,57.7031 1074.3906,57.1563 C1073.8594,56.7344 1073.2188,56.4844 1071.7344,56.2188 C1070.4688,55.9844 1070.375,55.9531 1070.0469,55.7813 C1069.6719,55.5938 1069.4063,55.2031 1069.4063,54.8438 C1069.4063,54.1094 1070.2656,53.5469 1071.3281,53.5469 C1072.3906,53.5469 1073.2031,54.0156 1073.3594,54.6875 C1073.4688,55.2344 1073.4688,55.2344 1073.5938,55.375 C1073.7344,55.5 1073.9688,55.6094 1074.2031,55.6094 C1074.4688,55.6094 1074.7188,55.4688 1074.8906,55.25 C1075,55.0781 1075.0313,54.9375 1075.0313,54.4688 L1075.0313,52.9688 Z "/><text fill="#000000" font-family="sans-serif" font-size="12" lengthAdjust="spacingAndGlyphs" textLength="43" x="1091.75" y="61.1543">Results</text><line style="stroke: #A80036; stroke-width: 1.5;" x1="990.5" x2="1203.5" y1="73" y2="73"/><ellipse cx="1000.5" cy="84" fill="none" rx="3" ry="3" style="stroke: #038048; stroke-width: 1.0;"/><text fill="#000000" font-family="sans-serif" font-size="11" lengthAdjust="spacingAndGlyphs" textLength="68" x="1009.5" y="87.2104">Plugin string</text><ellipse cx="1000.5" cy="96.8047" fill="none" rx="3" ry="3" style="stroke: #038048; stroke-width: 1.0;"/><text fill="#000000" font-family="sans-serif" font-size="11" lengthAdjust="spacingAndGlyphs" textLength="47" x="1009.5" y="100.0151">Modules</text><text fill="#0000FF" font-family="sans-serif" font-size="11" lengthAdjust="spacingAndGlyphs" textLength="25" x="1060.5" y="100.0151">map</text><text fill="#000000" font-family="sans-serif" font-size="11" lengthAdjust="spacingAndGlyphs" textLength="113" x="1085.5" y="100.0151">[string][]VulnResults</text><line style="stroke: #A80036; stroke-width: 1.5;" x1="990.5" x2="1203.5" y1="106.6094" y2="106.6094"/><!--MD5=[7309be160dbefe8f607696bae329ebdc]
class vulnerabilities.VulnResults--><rect codeLine="28" fill="#FEFECE" filter="url(#fm6c1det23lno)" height="73.6094" id="vulnerabilities.VulnResults" style="stroke: #A80036; stroke-width: 1.5;" width="116" x="838" y="41"/><ellipse cx="860.2" cy="57" fill="#7FFFD4" rx="11" ry="11" style="stroke: #A80036; stroke-width: 1.0;"/><path d="M863.9813,52.9688 C863.9813,52.5313 863.9656,52.3906 863.8719,52.2344 C863.7313,52 863.45,51.8438 863.1531,51.8438 C862.8094,51.8438 862.6688,51.9844 862.4969,52.4063 C861.9031,52.0313 861.1531,51.8438 860.2781,51.8438 C858.1688,51.8438 856.5906,53.1406 856.5906,54.8594 C856.5906,55.8281 857.1219,56.7344 857.9813,57.2188 C858.5281,57.5313 859.075,57.7031 860.1844,57.8906 C861.3406,58.0938 861.6063,58.1563 861.9656,58.3438 C862.3406,58.5469 862.575,58.8906 862.575,59.25 C862.575,59.9844 861.5906,60.5313 860.3406,60.5313 C859.2156,60.5313 858.1375,60.0469 857.9656,59.4375 C857.8406,58.9688 857.8406,58.9688 857.7156,58.8594 C857.5594,58.7031 857.3406,58.6094 857.1063,58.6094 C856.825,58.6094 856.575,58.7344 856.4031,58.9531 C856.2938,59.125 856.2469,59.3125 856.2469,59.7344 L856.2469,60.8594 C856.2469,61.625 856.5281,61.9844 857.1219,61.9844 C857.3875,61.9844 857.5125,61.9219 857.7938,61.5781 C858.6375,62.0156 859.5281,62.2344 860.45,62.2344 C862.7781,62.2344 864.3406,61.0469 864.3406,59.2813 C864.3406,58.3906 864.0281,57.7031 863.3406,57.1563 C862.8094,56.7344 862.1688,56.4844 860.6844,56.2188 C859.4188,55.9844 859.325,55.9531 858.9969,55.7813 C858.6219,55.5938 858.3563,55.2031 858.3563,54.8438 C858.3563,54.1094 859.2156,53.5469 860.2781,53.5469 C861.3406,53.5469 862.1531,54.0156 862.3094,54.6875 C862.4188,55.2344 862.4188,55.2344 862.5438,55.375 C862.6844,55.5 862.9188,55.6094 863.1531,55.6094 C863.4188,55.6094 863.6688,55.4688 863.8406,55.25 C863.95,55.0781 863.9813,54.9375 863.9813,54.4688 L863.9813,52.9688 Z "/><text fill="#000000" font-family="sans-serif" font-size="12" lengthAdjust="spacingAndGlyphs" textLength="68" x="875.8" y="61.1543">VulnResults</text><line style="stroke: #A80036; stroke-width: 1.5;" x1="839" x2="953" y1="73" y2="73"/><ellipse cx="849" cy="84" fill="none" rx="3" ry="3" style="stroke: #038048; stroke-width: 1.0;"/><text fill="#000000" font-family="sans-serif" font-size="11" lengthAdjust="spacingAndGlyphs" textLength="55" x="858" y="87.2104">File string</text><ellipse cx="849" cy="96.8047" fill="none" rx="3" ry="3" style="stroke: #038048; stroke-width: 1.0;"/><text fill="#000000" font-family="sans-serif" font-size="11" lengthAdjust="spacingAndGlyphs" textLength="90" x="858" y="100.0151">Matches []string</text><line style="stroke: #A80036; stroke-width: 1.5;" x1="839" x2="953" y1="106.6094" y2="106.6094"/><!--MD5=[eff61e029ccac94211f0359488ccdc3d]
class wp.Plugin--><rect codeLine="37" fill="#FEFECE" filter="url(#fm6c1det23lno)" height="419.3359" id="wp.Plugin" style="stroke: #A80036; stroke-width: 1.5;" width="418" x="387" y="190"/><ellipse cx="574.75" cy="206" fill="#7FFFD4" rx="11" ry="11" style="stroke: #A80036; stroke-width: 1.0;"/><path d="M578.5313,201.9688 C578.5313,201.5313 578.5156,201.3906 578.4219,201.2344 C578.2813,201 578,200.8438 577.7031,200.8438 C577.3594,200.8438 577.2188,200.9844 577.0469,201.4063 C576.4531,201.0313 575.7031,200.8438 574.8281,200.8438 C572.7188,200.8438 571.1406,202.1406 571.1406,203.8594 C571.1406,204.8281 571.6719,205.7344 572.5313,206.2188 C573.0781,206.5313 573.625,206.7031 574.7344,206.8906 C575.8906,207.0938 576.1563,207.1563 576.5156,207.3438 C576.8906,207.5469 577.125,207.8906 577.125,208.25 C577.125,208.9844 576.1406,209.5313 574.8906,209.5313 C573.7656,209.5313 572.6875,209.0469 572.5156,208.4375 C572.3906,207.9688 572.3906,207.9688 572.2656,207.8594 C572.1094,207.7031 571.8906,207.6094 571.6563,207.6094 C571.375,207.6094 571.125,207.7344 570.9531,207.9531 C570.8438,208.125 570.7969,208.3125 570.7969,208.7344 L570.7969,209.8594 C570.7969,210.625 571.0781,210.9844 571.6719,210.9844 C571.9375,210.9844 572.0625,210.9219 572.3438,210.5781 C573.1875,211.0156 574.0781,211.2344 575,211.2344 C577.3281,211.2344 578.8906,210.0469 578.8906,208.2813 C578.8906,207.3906 578.5781,206.7031 577.8906,206.1563 C577.3594,205.7344 576.7188,205.4844 575.2344,205.2188 C573.9688,204.9844 573.875,204.9531 573.5469,204.7813 C573.1719,204.5938 572.9063,204.2031 572.9063,203.8438 C572.9063,203.1094 573.7656,202.5469 574.8281,202.5469 C575.8906,202.5469 576.7031,203.0156 576.8594,203.6875 C576.9688,204.2344 576.9688,204.2344 577.0938,204.375 C577.2344,204.5 577.4688,204.6094 577.7031,204.6094 C577.9688,204.6094 578.2188,204.4688 578.3906,204.25 C578.5,204.0781 578.5313,203.9375 578.5313,203.4688 L578.5313,201.9688 Z "/><text fill="#000000" font-family="sans-serif" font-size="12" lengthAdjust="spacingAndGlyphs" textLength="34" x="595.25" y="210.1543">Plugin</text><line style="stroke: #A80036; stroke-width: 1.5;" x1="388" x2="804" y1="222" y2="222"/><rect fill="none" height="6" style="stroke: #C82930; stroke-width: 1.0;" width="6" x="395" y="230"/><text fill="#000000" font-family="sans-serif" font-size="11" lengthAdjust="spacingAndGlyphs" textLength="100" x="407" y="236.2104">inspectPath string</text><text fill="#000000" font-family="sans-serif" font-size="11" lengthAdjust="spacingAndGlyphs" textLength="0" x="411" y="249.0151"/><ellipse cx="398" cy="258.6094" fill="none" rx="3" ry="3" style="stroke: #038048; stroke-width: 1.0;"/><text fill="#000000" font-family="sans-serif" font-size="11" lengthAdjust="spacingAndGlyphs" textLength="69" x="407" y="261.8198">Name string</text><ellipse cx="398" cy="271.4141" fill="none" rx="3" ry="3" style="stroke: #038048; stroke-width: 1.0;"/><text fill="#000000" font-family="sans-serif" font-size="11" lengthAdjust="spacingAndGlyphs" textLength="60" x="407" y="274.6245">Slug string</text><ellipse cx="398" cy="284.2188" fill="none" rx="3" ry="3" style="stroke: #038048; stroke-width: 1.0;"/><text fill="#000000" font-family="sans-serif" font-size="11" lengthAdjust="spacingAndGlyphs" textLength="78" x="407" y="287.4292">Version string</text><ellipse cx="398" cy="297.0234" fill="none" rx="3" ry="3" style="stroke: #038048; stroke-width: 1.0;"/><text fill="#000000" font-family="sans-serif" font-size="11" lengthAdjust="spacingAndGlyphs" textLength="72" x="407" y="300.2339">Author string</text><ellipse cx="398" cy="309.8281" fill="none" rx="3" ry="3" style="stroke: #038048; stroke-width: 1.0;"/><text fill="#000000" font-family="sans-serif" font-size="11" lengthAdjust="spacingAndGlyphs" textLength="41" x="407" y="313.0386">Ratings</text><text fill="#0000FF" font-family="sans-serif" font-size="11" lengthAdjust="spacingAndGlyphs" textLength="31" x="452" y="313.0386">struct</text><text fill="#000000" font-family="sans-serif" font-size="11" lengthAdjust="spacingAndGlyphs" textLength="112" x="483" y="313.0386">{int, int, int, int, int}</text><ellipse cx="398" cy="322.6328" fill="none" rx="3" ry="3" style="stroke: #038048; stroke-width: 1.0;"/><text fill="#000000" font-family="sans-serif" font-size="11" lengthAdjust="spacingAndGlyphs" textLength="85" x="407" y="325.8433">NumRatings int</text><ellipse cx="398" cy="335.4375" fill="none" rx="3" ry="3" style="stroke: #038048; stroke-width: 1.0;"/><text fill="#000000" font-family="sans-serif" font-size="11" lengthAdjust="spacingAndGlyphs" textLength="108" x="407" y="338.6479">SupportThreads int</text><ellipse cx="398" cy="348.2422" fill="none" rx="3" ry="3" style="stroke: #038048; stroke-width: 1.0;"/><text fill="#000000" font-family="sans-serif" font-size="11" lengthAdjust="spacingAndGlyphs" textLength="161" x="407" y="351.4526">SupportThreadsResolved int</text><ellipse cx="398" cy="361.0469" fill="none" rx="3" ry="3" style="stroke: #038048; stroke-width: 1.0;"/><text fill="#000000" font-family="sans-serif" font-size="11" lengthAdjust="spacingAndGlyphs" textLength="93" x="407" y="364.2573">ActiveInstalls int</text><ellipse cx="398" cy="373.8516" fill="none" rx="3" ry="3" style="stroke: #038048; stroke-width: 1.0;"/><text fill="#000000" font-family="sans-serif" font-size="11" lengthAdjust="spacingAndGlyphs" textLength="89" x="407" y="377.062">Downloaded int</text><ellipse cx="398" cy="386.6563" fill="none" rx="3" ry="3" style="stroke: #038048; stroke-width: 1.0;"/><text fill="#000000" font-family="sans-serif" font-size="11" lengthAdjust="spacingAndGlyphs" textLength="106" x="407" y="389.8667">LastUpdated string</text><ellipse cx="398" cy="399.4609" fill="none" rx="3" ry="3" style="stroke: #038048; stroke-width: 1.0;"/><text fill="#000000" font-family="sans-serif" font-size="11" lengthAdjust="spacingAndGlyphs" textLength="72" x="407" y="402.6714">Added string</text><ellipse cx="398" cy="412.2656" fill="none" rx="3" ry="3" style="stroke: #038048; stroke-width: 1.0;"/><text fill="#000000" font-family="sans-serif" font-size="11" lengthAdjust="spacingAndGlyphs" textLength="98" x="407" y="415.4761">Homepage string</text><ellipse cx="398" cy="425.0703" fill="none" rx="3" ry="3" style="stroke: #038048; stroke-width: 1.0;"/><text fill="#000000" font-family="sans-serif" font-size="11" lengthAdjust="spacingAndGlyphs" textLength="99" x="407" y="428.2808">Description string</text><ellipse cx="398" cy="437.875" fill="none" rx="3" ry="3" style="stroke: #038048; stroke-width: 1.0;"/><text fill="#000000" font-family="sans-serif" font-size="11" lengthAdjust="spacingAndGlyphs" textLength="129" x="407" y="441.0854">ShortDescription string</text><ellipse cx="398" cy="450.6797" fill="none" rx="3" ry="3" style="stroke: #038048; stroke-width: 1.0;"/><text fill="#000000" font-family="sans-serif" font-size="11" lengthAdjust="spacingAndGlyphs" textLength="113" x="407" y="453.8901">DownloadLink string</text><ellipse cx="398" cy="463.4844" fill="none" rx="3" ry="3" style="stroke: #038048; stroke-width: 1.0;"/><text fill="#000000" font-family="sans-serif" font-size="11" lengthAdjust="spacingAndGlyphs" textLength="99" x="407" y="466.6948">DonateLink string</text><ellipse cx="398" cy="476.2891" fill="none" rx="3" ry="3" style="stroke: #038048; stroke-width: 1.0;"/><text fill="#000000" font-family="sans-serif" font-size="11" lengthAdjust="spacingAndGlyphs" textLength="29" x="407" y="479.4995">Icons</text><text fill="#0000FF" font-family="sans-serif" font-size="11" lengthAdjust="spacingAndGlyphs" textLength="31" x="440" y="479.4995">struct</text><text fill="#000000" font-family="sans-serif" font-size="11" lengthAdjust="spacingAndGlyphs" textLength="83" x="471" y="479.4995">{string, string}</text><ellipse cx="398" cy="489.0938" fill="none" rx="3" ry="3" style="stroke: #038048; stroke-width: 1.0;"/><text fill="#000000" font-family="sans-serif" font-size="11" lengthAdjust="spacingAndGlyphs" textLength="160" x="407" y="492.3042">DaysSinceLastUpdate string</text><ellipse cx="398" cy="501.8984" fill="none" rx="3" ry="3" style="stroke: #038048; stroke-width: 1.0;"/><text fill="#000000" font-family="sans-serif" font-size="11" lengthAdjust="spacingAndGlyphs" textLength="79" x="407" y="505.1089">OutPath string</text><ellipse cx="398" cy="514.7031" fill="none" rx="3" ry="3" style="stroke: #038048; stroke-width: 1.0;"/><text fill="#000000" font-family="sans-serif" font-size="11" lengthAdjust="spacingAndGlyphs" textLength="89" x="407" y="517.9136">FileName string</text><line style="stroke: #A80036; stroke-width: 1.5;" x1="388" x2="804" y1="524.5078" y2="524.5078"/><rect fill="#F24D5C" height="6" style="stroke: #C82930; stroke-width: 1.0;" width="6" x="395" y="532.5078"/><text fill="#000000" font-family="sans-serif" font-size="11" lengthAdjust="spacingAndGlyphs" textLength="101" x="407" y="538.7183">setOutPath() error</text><rect fill="#F24D5C" height="6" style="stroke: #C82930; stroke-width: 1.0;" width="6" x="395" y="545.3125"/><text fill="#000000" font-family="sans-serif" font-size="11" lengthAdjust="spacingAndGlyphs" textLength="159" x="407" y="551.5229">setDaysSinceUpdate() error</text><rect fill="#F24D5C" height="6" style="stroke: #C82930; stroke-width: 1.0;" width="6" x="395" y="558.1172"/><text fill="#000000" font-family="sans-serif" font-size="11" lengthAdjust="spacingAndGlyphs" textLength="127" x="407" y="564.3276">moveToInspect() error</text><rect fill="#F24D5C" height="6" style="stroke: #C82930; stroke-width: 1.0;" width="6" x="395" y="570.9219"/><text fill="#000000" font-family="sans-serif" font-size="11" lengthAdjust="spacingAndGlyphs" textLength="280" x="407" y="577.1323">saveResults(results *vulnerabilities.Results) error</text><text fill="#000000" font-family="sans-serif" font-size="11" lengthAdjust="spacingAndGlyphs" textLength="0" x="411" y="589.937"/><ellipse cx="398" cy="599.5313" fill="#84BE84" rx="3" ry="3" style="stroke: #038048; stroke-width: 1.0;"/><text fill="#000000" font-family="sans-serif" font-size="11" lengthAdjust="spacingAndGlyphs" textLength="326" x="407" y="602.7417">VulnScan(ctx context.Context, filesScanned *int, errChan</text><text fill="#0000FF" font-family="sans-serif" font-size="11" lengthAdjust="spacingAndGlyphs" textLength="27" x="737" y="602.7417">chan</text><text fill="#000000" font-family="sans-serif" font-size="11" lengthAdjust="spacingAndGlyphs" textLength="31" x="768" y="602.7417">error)</text><!--MD5=[83bad94a227c546c1941b26f6a553480]
class wp.Plugins--><rect codeLine="70" fill="#FEFECE" filter="url(#fm6c1det23lno)" height="214.4609" id="wp.Plugins" style="stroke: #A80036; stroke-width: 1.5;" width="320" x="32" y="292.5"/><ellipse cx="167.25" cy="308.5" fill="#7FFFD4" rx="11" ry="11" style="stroke: #A80036; stroke-width: 1.0;"/><path d="M171.0313,304.4688 C171.0313,304.0313 171.0156,303.8906 170.9219,303.7344 C170.7813,303.5 170.5,303.3438 170.2031,303.3438 C169.8594,303.3438 169.7188,303.4844 169.5469,303.9063 C168.9531,303.5313 168.2031,303.3438 167.3281,303.3438 C165.2188,303.3438 163.6406,304.6406 163.6406,306.3594 C163.6406,307.3281 164.1719,308.2344 165.0313,308.7188 C165.5781,309.0313 166.125,309.2031 167.2344,309.3906 C168.3906,309.5938 168.6563,309.6563 169.0156,309.8438 C169.3906,310.0469 169.625,310.3906 169.625,310.75 C169.625,311.4844 168.6406,312.0313 167.3906,312.0313 C166.2656,312.0313 165.1875,311.5469 165.0156,310.9375 C164.8906,310.4688 164.8906,310.4688 164.7656,310.3594 C164.6094,310.2031 164.3906,310.1094 164.1563,310.1094 C163.875,310.1094 163.625,310.2344 163.4531,310.4531 C163.3438,310.625 163.2969,310.8125 163.2969,311.2344 L163.2969,312.3594 C163.2969,313.125 163.5781,313.4844 164.1719,313.4844 C164.4375,313.4844 164.5625,313.4219 164.8438,313.0781 C165.6875,313.5156 166.5781,313.7344 167.5,313.7344 C169.8281,313.7344 171.3906,312.5469 171.3906,310.7813 C171.3906,309.8906 171.0781,309.2031 170.3906,308.6563 C169.8594,308.2344 169.2188,307.9844 167.7344,307.7188 C166.4688,307.4844 166.375,307.4531 166.0469,307.2813 C165.6719,307.0938 165.4063,306.7031 165.4063,306.3438 C165.4063,305.6094 166.2656,305.0469 167.3281,305.0469 C168.3906,305.0469 169.2031,305.5156 169.3594,306.1875 C169.4688,306.7344 169.4688,306.7344 169.5938,306.875 C169.7344,307 169.9688,307.1094 170.2031,307.1094 C170.4688,307.1094 170.7188,306.9688 170.8906,306.75 C171,306.5781 171.0313,306.4375 171.0313,305.9688 L171.0313,304.4688 Z "/><text fill="#000000" font-family="sans-serif" font-size="12" lengthAdjust="spacingAndGlyphs" textLength="41" x="187.75" y="312.6543">Plugins</text><line style="stroke: #A80036; stroke-width: 1.5;" x1="33" x2="351" y1="324.5" y2="324.5"/><ellipse cx="43" cy="335.5" fill="none" rx="3" ry="3" style="stroke: #038048; stroke-width: 1.0;"/><text fill="#000000" font-family="sans-serif" font-size="11" lengthAdjust="spacingAndGlyphs" textLength="21" x="52" y="338.7104">Info</text><text fill="#0000FF" font-family="sans-serif" font-size="11" lengthAdjust="spacingAndGlyphs" textLength="31" x="77" y="338.7104">struct</text><text fill="#000000" font-family="sans-serif" font-size="11" lengthAdjust="spacingAndGlyphs" textLength="70" x="108" y="338.7104">{int, int, int}</text><ellipse cx="43" cy="348.3047" fill="none" rx="3" ry="3" style="stroke: #038048; stroke-width: 1.0;"/><text fill="#000000" font-family="sans-serif" font-size="11" lengthAdjust="spacingAndGlyphs" textLength="84" x="52" y="351.5151">Plugins []Plugin</text><ellipse cx="43" cy="361.1094" fill="none" rx="3" ry="3" style="stroke: #038048; stroke-width: 1.0;"/><text fill="#000000" font-family="sans-serif" font-size="11" lengthAdjust="spacingAndGlyphs" textLength="53" x="52" y="364.3198">URI string</text><ellipse cx="43" cy="373.9141" fill="none" rx="3" ry="3" style="stroke: #038048; stroke-width: 1.0;"/><text fill="#000000" font-family="sans-serif" font-size="11" lengthAdjust="spacingAndGlyphs" textLength="94" x="52" y="377.1245">FilesScanned int</text><line style="stroke: #A80036; stroke-width: 1.5;" x1="33" x2="351" y1="383.7188" y2="383.7188"/><rect fill="#F24D5C" height="6" style="stroke: #C82930; stroke-width: 1.0;" width="6" x="40" y="391.7188"/><text fill="#000000" font-family="sans-serif" font-size="11" lengthAdjust="spacingAndGlyphs" textLength="228" x="52" y="397.9292">addPlugins(ctx context.Context, errChan</text><text fill="#0000FF" font-family="sans-serif" font-size="11" lengthAdjust="spacingAndGlyphs" textLength="27" x="284" y="397.9292">chan</text><text fill="#000000" font-family="sans-serif" font-size="11" lengthAdjust="spacingAndGlyphs" textLength="31" x="315" y="397.9292">error)</text><text fill="#000000" font-family="sans-serif" font-size="11" lengthAdjust="spacingAndGlyphs" textLength="0" x="56" y="410.7339"/><ellipse cx="43" cy="420.3281" fill="#84BE84" rx="3" ry="3" style="stroke: #038048; stroke-width: 1.0;"/><text fill="#000000" font-family="sans-serif" font-size="11" lengthAdjust="spacingAndGlyphs" textLength="196" x="52" y="423.5386">Scan(ctx context.Context, errChan</text><text fill="#0000FF" font-family="sans-serif" font-size="11" lengthAdjust="spacingAndGlyphs" textLength="27" x="252" y="423.5386">chan</text><text fill="#000000" font-family="sans-serif" font-size="11" lengthAdjust="spacingAndGlyphs" textLength="31" x="283" y="423.5386">error)</text><ellipse cx="43" cy="433.1328" fill="#84BE84" rx="3" ry="3" style="stroke: #038048; stroke-width: 1.0;"/><text fill="#000000" font-family="sans-serif" font-size="11" lengthAdjust="spacingAndGlyphs" textLength="54" x="52" y="436.3433">Page() int</text><ellipse cx="43" cy="445.9375" fill="#84BE84" rx="3" ry="3" style="stroke: #038048; stroke-width: 1.0;"/><text fill="#000000" font-family="sans-serif" font-size="11" lengthAdjust="spacingAndGlyphs" textLength="60" x="52" y="449.1479">Pages() int</text><ellipse cx="43" cy="458.7422" fill="#84BE84" rx="3" ry="3" style="stroke: #038048; stroke-width: 1.0;"/><text fill="#000000" font-family="sans-serif" font-size="11" lengthAdjust="spacingAndGlyphs" textLength="80" x="52" y="461.9526">TotalFiles() int</text><ellipse cx="43" cy="471.5469" fill="#84BE84" rx="3" ry="3" style="stroke: #038048; stroke-width: 1.0;"/><text fill="#000000" font-family="sans-serif" font-size="11" lengthAdjust="spacingAndGlyphs" textLength="109" x="52" y="474.7573">ScannedCount() int</text><ellipse cx="43" cy="484.3516" fill="#84BE84" rx="3" ry="3" style="stroke: #038048; stroke-width: 1.0;"/><text fill="#000000" font-family="sans-serif" font-size="11" lengthAdjust="spacingAndGlyphs" textLength="194" x="52" y="487.562">AddInfo(ctx context.Context) error</text><ellipse cx="43" cy="497.1563" fill="#84BE84" rx="3" ry="3" style="stroke: #038048; stroke-width: 1.0;"/><text fill="#000000" font-family="sans-serif" font-size="11" lengthAdjust="spacingAndGlyphs" textLength="110" x="52" y="500.3667">RemovePlugin(i int)</text><!--MD5=[9ead557bc24d309f15c6536ab16d61fd]
reverse link echidna.target to wp.Plugins--><path codeLine="89" d="M192,128.917 C192,172.535 192,237.327 192,292.461 " fill="none" id="echidna.target&lt;-wp.Plugins" style="stroke: #A80036; stroke-width: 1.0;"/><polygon fill="none" points="185,128.771,192,108.771,199,128.771,185,128.771" style="stroke: #A80036; stroke-width: 1.0;"/><!--MD5=[48f18ebc9a4d90516ddce42e40315c1b]
@startuml
namespace echidna {
    class scanner << (S,Aquamarine) >> {
        + Target target
        + Started bool

    }
    interface target  {
        + Scan( context.Context,  <font color=blue>chan</font> error) 

    }
}


namespace requests {
    interface HTTPClient  {
        + Do(req *http.Request) (*http.Response, error)

    }
}


namespace vulnerabilities {
    class Results << (S,Aquamarine) >> {
        + Plugin string
        + Modules <font color=blue>map</font>[string][]VulnResults

    }
    class VulnResults << (S,Aquamarine) >> {
        + File string
        + Matches []string

    }
}


namespace wp {
    class Plugin << (S,Aquamarine) >> {
        - inspectPath string

        + Name string
        + Slug string
        + Version string
        + Author string
        + Ratings <font color=blue>struct</font>{int, int, int, int, int}
        + NumRatings int
        + SupportThreads int
        + SupportThreadsResolved int
        + ActiveInstalls int
        + Downloaded int
        + LastUpdated string
        + Added string
        + Homepage string
        + Description string
        + ShortDescription string
        + DownloadLink string
        + DonateLink string
        + Icons <font color=blue>struct</font>{string, string}
        + DaysSinceLastUpdate string
        + OutPath string
        + FileName string

        - setOutPath() error
        - setDaysSinceUpdate() error
        - moveToInspect() error
        - saveResults(results *vulnerabilities.Results) error

        + VulnScan(ctx context.Context, filesScanned *int, errChan <font color=blue>chan</font> error) 

    }
    class Plugins << (S,Aquamarine) >> {
        + Info <font color=blue>struct</font>{int, int, int}
        + Plugins []Plugin
        + URI string
        + FilesScanned int

        - addPlugins(ctx context.Context, errChan <font color=blue>chan</font> error) 

        + Scan(ctx context.Context, errChan <font color=blue>chan</font> error) 
        + Page() int
        + Pages() int
        + TotalFiles() int
        + ScannedCount() int
        + AddInfo(ctx context.Context) error
        + RemovePlugin(i int) 

    }
}

"echidna.target" <|- - "wp.Plugins"
@enduml

PlantUML version 1.2020.16beta7(Unknown compile time)
(GPL source distribution)
Java Runtime: Java(TM) SE Runtime Environment
JVM: Java HotSpot(TM) 64-Bit Server VM
Default Encoding: UTF-8
Language: en
Country: US
--></g></svg>